<svg xmlns="http://www.w3.org/2000/svg" viewBox="0 0 167.52 167.57"><defs><style>.cls-1{fill:#fff;}</style></defs><g id="Capa_2" data-name="Capa 2"><g id="Capa_1-2" data-name="Capa 1"><path class="cls-1" d="M10.52,167.57c-.68-.16-1.37-.31-2-.48A11.48,11.48,0,0,1,1.71,150a16.66,16.66,0,0,1,2.15-2.67L147.3,3.89c3.5-3.5,7.61-4.8,12.34-3.24a11.46,11.46,0,0,1,4.43,19.05q-9,9-18,18L36.44,147.35c-5.43,5.43-10.87,10.84-16.28,16.29a11.78,11.78,0,0,1-7.07,3.78c-.1,0-.18.1-.28.15Z"/><path class="cls-1" d="M78.21,167.57l-1.49-.34a11.5,11.5,0,0,1-5.42-19.69l42.06-42.06q17.06-17.07,34.11-34.13a11.86,11.86,0,0,1,9.2-3.71,11.64,11.64,0,0,1,10.69,9.75,11.49,11.49,0,0,1-3.46,10.13q-38.15,38.15-76.29,76.3a11.37,11.37,0,0,1-6.9,3.59,1.73,1.73,0,0,0-.37.16Z"/><path class="cls-1" d="M143.44,167.57l-1.4-.33a11.51,11.51,0,0,1-5.77-19.35c3.87-4,7.77-7.91,11.76-11.75a11.5,11.5,0,0,1,19.32,6.61,10.76,10.76,0,0,1-3,9.56c-3.95,4.11-8,8.11-12.09,12.1a10.42,10.42,0,0,1-6.23,3,2.8,2.8,0,0,0-.46.16Z"/></g></g></svg>